<?xml version="1.0" encoding="UTF-8" standalone="no"?>
<svg
   xmlns:dc="http://purl.org/dc/elements/1.1/"
   xmlns:cc="http://creativecommons.org/ns#"
   xmlns:rdf="http://www.w3.org/1999/02/22-rdf-syntax-ns#"
   xmlns:svg="http://www.w3.org/2000/svg"
   xmlns="http://www.w3.org/2000/svg"
   xmlns:sodipodi="http://sodipodi.sourceforge.net/DTD/sodipodi-0.dtd"
   xmlns:inkscape="http://www.inkscape.org/namespaces/inkscape"
   width="178.81197mm"
   height="67.353088mm"
   viewBox="0 0 178.81197 67.353089"
   version="1.1"
   id="svg8"
   inkscape:version="1.0.1 (3bc2e813f5, 2020-09-07)"
   sodipodi:docname="logo.svg">
  <defs
     id="defs2">
    <inkscape:path-effect
       effect="spiro"
       id="path-effect916"
       is_visible="true"
       lpeversion="1" />
    <inkscape:path-effect
       effect="spiro"
       id="path-effect877"
       is_visible="true"
       lpeversion="1" />
    <inkscape:path-effect
       effect="spiro"
       id="path-effect873"
       is_visible="true"
       lpeversion="1" />
    <inkscape:path-effect
       effect="spiro"
       id="path-effect867"
       is_visible="true"
       lpeversion="1" />
    <inkscape:path-effect
       effect="spiro"
       id="path-effect863"
       is_visible="true"
       lpeversion="1" />
    <inkscape:path-effect
       effect="spiro"
       id="path-effect859"
       is_visible="true"
       lpeversion="1" />
    <inkscape:path-effect
       effect="spiro"
       id="path-effect849"
       is_visible="true"
       lpeversion="1" />
  </defs>
  <sodipodi:namedview
     id="base"
     pagecolor="#ffffff"
     bordercolor="#666666"
     borderopacity="1.0"
     inkscape:pageopacity="0.0"
     inkscape:pageshadow="2"
     inkscape:zoom="1.4142136"
     inkscape:cx="297.08561"
     inkscape:cy="294.04652"
     inkscape:document-units="mm"
     inkscape:current-layer="layer1"
     inkscape:document-rotation="0"
     showgrid="false"
     inkscape:window-width="2635"
     inkscape:window-height="1491"
     inkscape:window-x="4355"
     inkscape:window-y="110"
     inkscape:window-maximized="0"
     fit-margin-top="10"
     fit-margin-left="10"
     fit-margin-right="10"
     fit-margin-bottom="10"
     lock-margins="false" />
  <metadata
     id="metadata5">
    <rdf:RDF>
      <cc:Work
         rdf:about="">
        <dc:format>image/svg+xml</dc:format>
        <dc:type
           rdf:resource="http://purl.org/dc/dcmitype/StillImage" />
        <dc:title></dc:title>
      </cc:Work>
    </rdf:RDF>
  </metadata>
  <g
     inkscape:label="Layer 1"
     inkscape:groupmode="layer"
     id="layer1"
     transform="translate(-42.463711,-61.805525)">
    <text
       xml:space="preserve"
       style="font-size:8.46667px;line-height:1.25;font-family:'ChunkFive Ex';-inkscape-font-specification:'ChunkFive Ex';text-align:end;letter-spacing:0px;word-spacing:0px;text-anchor:end;stroke-width:0.264583"
       x="133.39391"
       y="98.307793"
       id="text835"><tspan
         sodipodi:role="line"
         id="tspan833"
         x="133.39391"
         y="98.307793"
         style="font-style:normal;font-variant:normal;font-weight:normal;font-stretch:normal;font-size:8.46667px;font-family:Verdana;-inkscape-font-specification:Verdana;stroke-width:0.264583" /></text>
    <path
       id="path1054"
       style="fill:#333333;stroke:#000000;stroke-width:0.999995px;stroke-linecap:butt;stroke-linejoin:miter;stroke-opacity:1"
       transform="scale(0.26458333)"
       d="m 775.79883,283.39453 c -0.75095,-0.009 -1.50726,0.0478 -2.32617,0.13086 -3.79284,0.38481 -7.54071,1.61254 -10.75391,3.82227 -3.21328,2.20973 -5.87068,5.42702 -7.29492,9.24218 -1.28818,3.45063 -1.54003,7.33182 -0.78125,10.96094 0.75874,3.62912 2.51674,6.99561 4.94531,9.63477 2.42857,2.63915 5.51639,4.5498 8.83399,5.55468 3.31751,1.00486 6.85513,1.11121 10.23437,0.38477 3.24956,-0.69872 6.36358,-2.16987 9.00195,-4.33398 2.63834,-2.16416 5.26822,-6.31711 6.62696,-9.58008 l -7.94727,-2.93946 c -0.85463,1.66116 -2.44407,3.34808 -3.65234,4.17383 -1.20824,0.82575 -2.18712,1.29254 -3.94532,1.76758 -1.75819,0.47524 -4.37044,0.5518 -6.52148,0.18359 -2.15108,-0.36817 -5.94175,-0.85025 -7.22656,-5.26757 0,0 25.50835,-4.51033 27.64843,-6.61914 -0.51972,-5.32749 -3.82671,-11.36765 -8.71874,-14.28907 -3.66903,-2.19104 -5.87022,-2.79959 -8.12305,-2.82617 z m -0.40821,9.61524 c 3.21189,-0.058 7.64781,1.49068 8.58204,3.51171 l -19.72657,4.32618 c -0.0988,-1.41616 0.69928,-3.54007 2.6875,-5.20118 2.17096,-1.75438 5.24512,-2.57874 8.45703,-2.63671 z m -52.54576,18.25064 3.00416,22.49203 -12.35456,3.34628 -4.85605,-39.1691 11.39115,-4.17225 0.76759,4.09069 c 4.31074,-3.54275 16.73677,-8.95419 21.99303,-4.50808 5.25627,4.44611 6.30913,9.84829 7.23598,16.76623 0.92682,6.91794 2.51373,17.14672 2.51373,17.14672 l -9.56028,2.23086 -2.93329,-18.91969 c 0,0 -2.31273,-6.42454 -8.32078,-6.0664 -6.05749,0.3611 -8.03051,4.21757 -8.88068,6.76271 z m -34.35319,-7.91998 c 0,2.15512 4.21361,41.34364 4.21361,41.34364 l 12.72786,-3.43187 -4.1289,-42.99698 z m -32.82153,25.69663 3.33113,23.14306 -13.69928,3.44314 -10.88186,-79.46034 12.69071,-4.11364 6.28871,43.18721 c 4.77994,-3.64529 18.55851,-9.21336 24.38688,-4.63856 5.82841,4.5748 6.99587,10.13335 8.02363,17.25153 1.02773,7.11818 2.78737,17.64302 2.78737,17.64302 l -10.60094,2.29543 -3.25254,-19.46731 c 0,0 -2.56445,-6.6105 -9.22651,-6.24199 -6.71679,0.37153 -8.90461,4.33964 -9.8473,6.95845 z m -21.20923,-5.79908 c -2.54362,-3.40117 -6.01092,-5.93621 -9.81082,-7.17297 -3.79998,-1.23674 -7.91653,-1.16997 -11.6479,0.18891 -4.54734,1.65606 -8.48032,5.24093 -10.84751,9.8636 -2.36716,4.62267 -3.15069,10.2401 -2.17897,15.50268 0.97167,5.26258 3.68677,10.12641 7.49378,13.45867 3.80689,3.33224 8.67258,5.10894 13.47265,4.93886 4.12441,-0.14626 8.18045,-1.7139 11.47408,-4.43498 3.2936,-2.72109 5.81072,-6.58388 7.2584,-11.20173 l -7.23916,-1.91838 c -1.20661,2.4188 -2.68872,4.37341 -4.52564,5.75461 -1.83697,1.38133 -4.02346,2.18509 -6.25051,2.29798 -3.08723,0.15651 -6.2363,-1.04597 -8.59809,-3.31144 -2.36179,-2.26546 -3.90527,-5.57325 -4.17891,-9.0123 -0.27363,-3.43907 0.73308,-6.96678 2.74919,-9.54801 2.01615,-2.58125 5.01937,-4.17573 8.10921,-4.27578 1.99506,-0.0647 4.01132,0.47768 5.77391,1.55322 1.76269,1.07557 3.26698,2.6814 4.35152,4.61242 l 4.59477,-7.29536 m -57.27927,-5.12275 c -4.99191,0.12986 -17.80434,3.60256 -19.27148,4.34766 -1.56499,0.79477 -1.54451,2.15439 -0.79688,4.46484 1.34041,4.14244 5.55727,2.4483 8.2207,1.83204 3.69041,-0.85391 6.76398,-2.10837 10.04688,-2.61133 1.72146,-0.25391 3.50105,-0.241 5.16797,0.27344 2.68146,0.81447 2.87316,1.10194 3,2.7539 0.16101,2.09847 1.59573,4.81698 -1.3418,3.79492 -2.93745,-1.02205 -7.03887,-1.2439 -10.11719,-0.9375 -3.56436,0.35483 -7.16983,1.06223 -10.18945,3.09961 -3.01965,2.03738 -5.51699,5.00391 -6.85547,8.52149 -1.21058,3.18148 -1.44746,6.75745 -0.73437,10.10351 0.71297,3.34605 2.36418,6.45146 4.64648,8.88477 2.28219,2.43331 5.18508,4.19459 8.30274,5.12109 3.11765,0.92647 6.44346,1.02331 9.61914,0.35352 3.05374,-0.64422 5.97957,-1.99883 8.45898,-3.99414 2.47945,-1.99536 4.35547,-4.01758 4.35547,-4.01758 0,0 0.38755,3.17944 1.17187,4.10351 1.95867,0.0454 7.6078,-2.12882 7.79493,-2.88867 0.20711,-0.84079 0.0778,-0.40856 -2.00391,-14.18164 -2.08165,-13.77308 -5.18371,-20.63207 -6.81836,-23.08398 -1.63461,-2.45193 -7.64604,-5.55229 -11.76758,-5.91797 -0.2576,-0.0229 -0.55588,-0.0301 -0.88867,-0.0215 z m -2.87109,23.59571 c 2.8693,-0.0297 5.94438,1.42812 7.91601,3.4707 1.97167,2.04258 2.30732,5.58735 1.81836,7.13867 -0.48892,1.55129 -2.09885,3.52381 -3.23437,4.28516 -1.13545,0.76135 -2.05478,1.19286 -3.70703,1.63086 -1.65222,0.4382 -4.11823,0.64624 -6.13086,0.16797 -2.01264,-0.4783 -3.91521,-1.57006 -5.27735,-3.21094 -1.36214,-1.64088 -2.11509,-4.38671 -2.00586,-6.02148 0.10885,-1.63477 0.67849,-3.25697 2.52539,-4.79688 1.84687,-1.53991 4.62013,-2.44863 8.09571,-2.66406 z m -102.63843,51.56554 c -0.52634,-4.92677 -12.39046,-83.51083 -12.39046,-83.51083 l 23.51569,-6.19329 24.02649,46.59235 10.28247,-52.21487 24.10534,-6.76273 7.59129,81.84869 -18.74551,5.9561 -3.4221,-35.72529 -16.09232,30.29993 -21.34711,-18.38543 c 0,0 9.60193,33.93963 6.62502,34.35741 -2.97691,0.41779 -24.1488,3.73796 -24.1488,3.73796 z m -30.21704,-38.1339 c -0.91789,0.002 -1.83527,0.0475 -2.74805,0.13476 -4.22763,0.40425 -8.40481,1.6962 -11.98633,4.01758 -3.58155,2.32138 -6.54334,5.70106 -8.13086,9.70899 -1.43584,3.62497 -1.71683,7.70118 -0.87109,11.51367 0.84571,3.81248 2.80279,7.35053 5.50977,10.12304 2.70689,2.77252 6.14984,4.77833 9.84765,5.83399 3.69778,1.05562 7.64164,1.16746 11.40821,0.4043 3.62199,-0.73403 7.09242,-2.27928 10.0332,-4.55274 2.94077,-2.2735 5.34296,-5.27919 6.85742,-8.70703 1.51449,-3.42784 2.13132,-7.27325 1.68359,-11.00391 -0.44772,-3.73066 -1.96851,-7.33218 -4.3789,-10.17968 -2.39346,-2.82752 -5.61944,-4.87454 -9.10352,-6.03907 -2.61306,-0.87339 -5.36743,-1.26113 -8.12109,-1.2539 z m -0.1875,11.44336 c 3.40324,-0.0339 7.05016,1.62972 9.38867,3.95703 2.3387,2.32731 2.73618,6.36524 2.15625,8.13281 -0.57993,1.76754 -2.48918,4.01534 -3.83594,4.88281 -1.34676,0.86748 -2.43875,1.35838 -4.39844,1.85743 -1.95972,0.49927 -4.88238,0.73633 -7.26953,0.1914 -2.38715,-0.54497 -4.64417,-1.78858 -6.25976,-3.6582 -1.6156,-1.86962 -2.50817,-4.99868 -2.37891,-6.86133 0.12911,-1.86265 0.80353,-3.71027 2.99414,-5.46484 2.19054,-1.75457 5.48119,-2.79163 9.60352,-3.03711 z m -77.41774,46.67324 c -4.22403,2.93189 -9.3169,4.40651 -14.45863,4.43675 -5.98412,0.0378 -11.96169,-2.10202 -16.55062,-5.94297 -4.58893,-3.8409 -7.7491,-9.35641 -8.72053,-15.26124 -0.97142,-5.90487 0.2586,-12.14971 3.41524,-17.23362 3.15665,-5.08396 8.21588,-8.95953 13.95263,-10.66264 4.70737,-1.39751 9.83572,-1.3405 14.51087,0.16131 4.67514,1.50181 9.39597,4.27034 11.8158,8.77303 l -6.18151,7.50088 c -1.28925,-2.17746 -2.98407,-4.00063 -5.00429,-5.24568 -2.02022,-1.24501 -4.63169,-1.92658 -7.1185,-1.91808 -3.85164,0.0132 -7.66305,1.69664 -10.29019,4.51329 -2.62714,2.81662 -4.04013,6.72189 -3.85541,10.56911 0.18474,3.84726 1.95673,7.58854 4.79472,10.19259 2.83799,2.60406 6.70423,4.04678 10.55514,3.97074 2.77795,-0.0548 5.39829,-0.86404 7.74794,-2.34713 2.34966,-1.48293 4.29852,-3.70941 5.59752,-6.11028 l 9.11215,2.51557 c -1.78935,4.92548 -5.0983,9.15648 -9.32233,12.08837 z m 50.10186,-48.86081 -9.22889,-4.44201 c -9.64403,-4.64182 -18.02211,9.09954 -18.02211,9.09954 l -1.28643,-5.92687 -12.24873,1.98355 6.03601,44.81978 13.40735,-3.17949 -2.93356,-24.67835 c 0,0 6.12178,-18.68177 14.30045,-12.33024 l 6.2403,4.84619 z m -110.51359,14.28894 c 0,2.40386 4.20811,46.11523 4.20811,46.11523 l 12.71136,-3.82795 -4.12354,-47.95939 z m -91.17586,69.39288 c -0.56969,-5.27425 -13.4119,-89.401 -13.4119,-89.401 l 25.45432,-6.63011 26.00723,49.87858 11.13018,-55.89767 26.09256,-7.23972 8.21711,87.62163 -20.29085,6.37621 -3.70422,-38.24508 -17.41896,32.43704 -23.107,-19.68219 c 0,0 10.39353,36.33347 7.1712,36.7807 -3.22233,0.44727 -26.13967,4.00161 -26.13967,4.00161 z" />
    <path
       id="path1058"
       style="fill:#ffff00;stroke:#000000;stroke-width:0.264582px;stroke-linecap:butt;stroke-linejoin:miter;stroke-opacity:1"
       d="m 206.20943,75.433567 c -0.19869,-0.0024 -0.3988,0.01265 -0.61547,0.03462 -1.00352,0.101814 -1.99514,0.426651 -2.8453,1.011309 -0.85018,0.584658 -1.55329,1.435899 -1.93012,2.445327 -0.34083,0.912979 -0.40746,1.939877 -0.2067,2.900082 0.20075,0.960204 0.66588,1.850922 1.30844,2.549199 0.64256,0.698275 1.45955,1.203802 2.33733,1.469676 0.87776,0.265869 1.81375,0.294008 2.70784,0.101804 0.85978,-0.18487 1.6837,-0.574112 2.38177,-1.146699 0.69806,-0.572601 1.39388,-1.671402 1.75338,-2.53473 l -2.10271,-0.777732 c -0.22612,0.439516 -0.64666,0.885847 -0.96635,1.104326 -0.31968,0.21848 -0.57868,0.341985 -1.04387,0.467672 -0.46518,0.125741 -1.15634,0.145997 -1.72547,0.04857 -0.56914,-0.09741 -1.57209,-0.224962 -1.91203,-1.393711 0,0 6.74909,-1.193358 7.31532,-1.751314 -0.13751,-1.409565 -1.01249,-3.007691 -2.30684,-3.78065 -0.97076,-0.579712 -1.55316,-0.740725 -2.14922,-0.747757 z m -0.10801,2.544032 c 0.84982,-0.01535 2.02349,0.394409 2.27067,0.92914 l -5.21932,1.144635 c -0.0261,-0.374692 0.18501,-0.936644 0.71106,-1.376146 0.5744,-0.464179 1.38778,-0.682291 2.23759,-0.697629 z m -13.90273,4.828815 0.79485,5.951016 -3.26881,0.88537 -1.28483,-10.363491 3.01391,-1.103908 0.20309,1.082329 c 1.14055,-0.937353 4.42827,-2.36913 5.81899,-1.192763 1.39072,1.176367 1.66929,2.605693 1.91452,4.436065 0.24522,1.830372 0.66509,4.536736 0.66509,4.536736 l -2.52949,0.590249 -0.7761,-5.005835 c 0,0 -0.61191,-1.699826 -2.20154,-1.605068 -1.60271,0.09554 -2.12474,1.115898 -2.34968,1.7893 z m -9.08928,-2.095495 c 0,0.570209 1.11485,10.938838 1.11485,10.938838 l 3.36758,-0.908015 -1.09244,-11.376284 z m -8.68403,6.7989 0.88136,6.123268 -3.6246,0.910998 -2.87916,-21.023882 3.35775,-1.0884 1.66389,11.426616 c 1.26469,-0.964483 4.91027,-2.437702 6.45236,-1.227286 1.5421,1.210416 1.85099,2.681115 2.12292,4.564467 0.27192,1.883352 0.73749,4.668049 0.73749,4.668049 l -2.80483,0.607333 -0.86057,-5.150726 c 0,0 -0.67851,-1.749028 -2.44118,-1.651527 -1.77715,0.0983 -2.35601,1.148197 -2.60543,1.84109 z m -5.61161,-1.53434 c -0.673,-0.899892 -1.59039,-1.570622 -2.59578,-1.897848 -1.00541,-0.327221 -2.09458,-0.309554 -3.08184,0.04998 -1.20315,0.438165 -2.24375,1.386662 -2.87007,2.609744 -0.62631,1.223081 -0.83362,2.709359 -0.57652,4.10175 0.25709,1.392391 0.97546,2.67928 1.98273,3.56094 1.00724,0.881655 2.29462,1.35174 3.56464,1.30674 1.09125,-0.0387 2.16441,-0.453469 3.03585,-1.173422 0.87143,-0.719955 1.53742,-1.741985 1.92045,-2.963791 l -1.91536,-0.507571 c -0.31925,0.639974 -0.71139,1.157131 -1.19741,1.522574 -0.48603,0.365477 -1.06454,0.578138 -1.65378,0.608007 -0.81683,0.04141 -1.65002,-0.276746 -2.27491,-0.876152 -0.62489,-0.599403 -1.03327,-1.474589 -1.10567,-2.384504 -0.0724,-0.909921 0.19396,-1.843294 0.72739,-2.526244 0.53344,-0.682956 1.32804,-1.104829 2.14556,-1.1313 0.52786,-0.01712 1.06133,0.126386 1.52768,0.410956 0.46638,0.284578 0.86439,0.709453 1.15134,1.220369 l 1.2157,-1.930231 m -15.15514,-1.355394 c -1.32078,0.03436 -4.71073,0.953177 -5.09891,1.150319 -0.41407,0.210282 -0.40865,0.570015 -0.21084,1.181322 0.35465,1.09602 1.47036,0.647779 2.17506,0.484727 0.97642,-0.22593 1.78963,-0.55784 2.65823,-0.690914 0.45547,-0.06718 0.92632,-0.06377 1.36736,0.07235 0.70947,0.215495 0.76019,0.291555 0.79375,0.728636 0.0426,0.555221 0.42221,1.274493 -0.35501,1.004073 -0.7772,-0.270417 -1.86237,-0.329115 -2.67684,-0.248047 -0.94307,0.09388 -1.89702,0.281048 -2.69596,0.820105 -0.79895,0.539057 -1.45971,1.323951 -1.81385,2.254644 -0.3203,0.841767 -0.38297,1.787909 -0.1943,2.673221 0.18864,0.885309 0.62552,1.706948 1.22938,2.350762 0.60383,0.643813 1.37189,1.109816 2.19677,1.354956 0.82488,0.24513 1.70483,0.27075 2.54506,0.0935 0.80797,-0.17045 1.5821,-0.528853 2.23811,-1.056779 0.65602,-0.527939 1.15238,-1.062984 1.15238,-1.062984 0,0 0.10254,0.841227 0.31006,1.08572 0.51823,0.01201 2.0129,-0.56325 2.06241,-0.764294 0.0548,-0.222459 0.0206,-0.108098 -0.5302,-3.752225 -0.55077,-3.644128 -1.37153,-5.458902 -1.80403,-6.107637 -0.43249,-0.64874 -2.02301,-1.469043 -3.1135,-1.565796 -0.0682,-0.0061 -0.14708,-0.008 -0.23513,-0.0057 z m -0.75964,6.243032 c 0.75917,-0.0079 1.57278,0.377856 2.09444,0.918289 0.52167,0.540433 0.61048,1.47832 0.48111,1.888773 -0.12936,0.410446 -0.55532,0.932342 -0.85576,1.133782 -0.30042,0.201441 -0.54366,0.315611 -0.98082,0.431498 -0.43715,0.115941 -1.08961,0.170985 -1.62212,0.04444 -0.53251,-0.12655 -1.0359,-0.415411 -1.3963,-0.849561 -0.3604,-0.434149 -0.55962,-1.16065 -0.53072,-1.593183 0.0288,-0.432533 0.17952,-0.86174 0.66818,-1.269174 0.48865,-0.407435 1.22241,-0.647867 2.14199,-0.704866 z M 125.74257,104.5065 c -0.13926,-1.30354 -3.27831,-22.095578 -3.27831,-22.095578 l 6.22186,-1.638641 6.35701,12.327559 2.72057,-13.815184 6.37787,-1.789305 2.00853,21.655806 -4.95975,1.575883 -0.90543,-9.452322 -4.25776,8.016859 -5.64809,-4.864481 c 0,0 2.54051,8.979864 1.75287,9.090404 -0.78764,0.11054 -6.38937,0.989 -6.38937,0.989 z m -7.99492,-10.089598 c -0.24286,5.29e-4 -0.48559,0.01257 -0.72709,0.03565 -1.11856,0.106958 -2.22378,0.448786 -3.17139,1.062985 -0.94761,0.614198 -1.73125,1.508405 -2.15129,2.568839 -0.37989,0.9591 -0.45424,2.037604 -0.23047,3.046324 0.22376,1.00872 0.74157,1.94483 1.45779,2.67839 0.7162,0.73356 1.62715,1.26426 2.60553,1.54357 0.97837,0.2793 2.02185,0.3089 3.01842,0.10698 0.95832,-0.19422 1.87653,-0.60306 2.65462,-1.20458 0.77807,-0.60153 1.41365,-1.39679 1.81435,-2.30374 0.40071,-0.90695 0.56392,-1.92438 0.44545,-2.911454 -0.11845,-0.98707 -0.52083,-1.93997 -1.15858,-2.693371 -0.63327,-0.748115 -1.48681,-1.289722 -2.40864,-1.597837 -0.69137,-0.231085 -1.42013,-0.333674 -2.1487,-0.331761 z m -0.0496,3.027724 c 0.90044,-0.009 1.86535,0.4312 2.48408,1.04697 0.61878,0.61576 0.72395,1.684134 0.57051,2.151804 -0.15344,0.46766 -0.6586,1.06239 -1.01493,1.29191 -0.35633,0.22952 -0.64525,0.35941 -1.16375,0.49145 -0.51851,0.13209 -1.2918,0.19482 -1.9234,0.0506 -0.6316,-0.14419 -1.22877,-0.47323 -1.65622,-0.9679 -0.42747,-0.49467 -0.66362,-1.32257 -0.62942,-1.815393 0.0342,-0.49283 0.2126,-0.981681 0.7922,-1.445911 0.57958,-0.46423 1.45023,-0.73862 2.54093,-0.80357 z M 97.214601,109.79359 c -1.117608,0.77573 -2.465097,1.16589 -3.825513,1.17389 -1.583298,0.01 -3.164863,-0.55616 -4.379018,-1.57241 -1.214154,-1.01624 -2.050282,-2.47555 -2.307307,-4.03787 -0.257021,-1.56233 0.06842,-3.21461 0.903616,-4.55973 0.835197,-1.345133 2.173785,-2.370544 3.691633,-2.821154 1.245492,-0.36976 2.602368,-0.35468 3.839335,0.0427 1.236964,0.39735 2.486017,1.129861 3.126263,2.321194 l -1.635524,1.98461 c -0.341114,-0.57612 -0.789535,-1.0585 -1.324052,-1.38792 -0.534516,-0.32941 -1.225468,-0.50974 -1.883436,-0.50749 -1.01908,0.003 -2.027516,0.4489 -2.722613,1.19414 -0.695098,0.74523 -1.068951,1.7785 -1.020077,2.79641 0.04888,1.01792 0.517718,2.0078 1.268603,2.69679 0.750885,0.68899 1.773827,1.07071 2.792714,1.05059 0.734999,-0.0145 1.428297,-0.22861 2.049976,-0.62101 0.62168,-0.39236 1.137316,-0.98145 1.48101,-1.61668 l 2.410927,0.66558 c -0.473436,1.3032 -1.348929,2.42265 -2.466537,3.19838 z M 110.47071,96.865832 108.0289,95.690551 c -2.55165,-1.228149 -4.76835,2.407585 -4.76835,2.407585 l -0.34037,-1.56815 -3.240812,0.524815 1.597032,11.858569 3.54736,-0.84124 -0.77617,-6.52948 c 0,0 1.61972,-4.942888 3.78366,-3.262374 l 1.65108,1.282221 z m -29.240056,3.780618 c 0,0.63602 1.113396,12.20132 1.113396,12.20132 l 3.363214,-1.01281 -1.09102,-12.689253 z m -24.123612,18.3602 C 56.956311,117.61117 53.558476,95.352633 53.558476,95.352633 l 6.734789,-1.754217 6.88108,13.197044 2.94486,-14.789595 6.903656,-1.915509 2.17411,23.183224 -5.36862,1.68704 -0.980075,-10.11901 -4.608766,8.5823 -6.113727,-5.20758 c 0,0 2.749954,9.61323 1.897379,9.73156 -0.852574,0.11834 -6.91612,1.05876 -6.91612,1.05876 z" />
  </g>
</svg>
